<svg width="14" height="14" viewBox="0 0 14 14" fill="none" xmlns="http://www.w3.org/2000/svg">
<path d="M14 3C14 4.65625 12.6563 6 11 6C10.0938 6 9.28128 5.625 8.71878 4.96875L5.90628 6.375C5.96878 6.59375 6.00003 6.8125 6.00003 7C6.00003 7.21875 5.96878 7.4375 5.90628 7.65625L8.71878 9.03125C9.28128 8.40625 10.0938 8 11 8C12.6563 8 14 9.34375 14 11C14 12.6562 12.6563 14 11 14C9.34378 14 8.00003 12.6562 8.00003 11C8.00003 10.8125 8.00003 10.5938 8.06253 10.375L5.25003 8.96875C4.68753 9.625 3.87503 10 3.00003 10C1.34378 10 3.05176e-05 8.65625 3.05176e-05 7C3.05176e-05 5.34375 1.34378 4 3.00003 4C3.87503 4 4.68753 4.40625 5.25003 5.03125L8.06253 3.65625C8.00003 3.4375 8.00003 3.21875 8.00003 3C8.00003 1.34375 9.34378 0 11 0C12.6563 0 14 1.34375 14 3ZM3.00003 8.5C3.53128 8.5 4.00003 8.21875 4.28128 7.75C4.56253 7.3125 4.56253 6.71875 4.28128 6.25C4.00003 5.8125 3.53128 5.5 3.00003 5.5C2.43753 5.5 1.96878 5.8125 1.68753 6.25C1.40628 6.71875 1.40628 7.3125 1.68753 7.75C1.96878 8.21875 2.43753 8.5 3.00003 8.5ZM12.5 3C12.5 2.46875 12.1875 2 11.75 1.71875C11.2813 1.4375 10.6875 1.4375 10.25 1.71875C9.78128 2 9.50003 2.46875 9.50003 3C9.50003 3.5625 9.78128 4.03125 10.25 4.3125C10.6875 4.59375 11.2813 4.59375 11.75 4.3125C12.1875 4.03125 12.5 3.5625 12.5 3ZM11 12.5C11.5313 12.5 12 12.2188 12.2813 11.75C12.5625 11.3125 12.5625 10.7188 12.2813 10.25C12 9.8125 11.5313 9.5 11 9.5C10.4375 9.5 9.96878 9.8125 9.68753 10.25C9.40628 10.7188 9.40628 11.3125 9.68753 11.75C9.96878 12.2188 10.4375 12.5 11 12.5Z" fill="#DE1C7D"/>
</svg>
