<svg width="12" height="17" viewBox="0 0 12 17" fill="none" xmlns="http://www.w3.org/2000/svg">
<path d="M9.5 15H10C10.25 15 10.5 14.7812 10.5 14.5V5.5H8C7.4375 5.5 7 5.0625 7 4.5V2H2C1.71875 2 1.5 2.25 1.5 2.5V14.5C1.5 14.7812 1.71875 15 2 15H2.5C2.5 13.625 3.59375 12.5 5 12.5H7C8.375 12.5 9.5 13.625 9.5 15ZM2 0.5H7.15625C7.6875 0.5 8.1875 0.71875 8.5625 1.09375L11.4062 3.9375C11.7812 4.3125 12 4.8125 12 5.34375V14.5C12 15.625 11.0938 16.5 10 16.5H2C0.875 16.5 0 15.625 0 14.5V2.5C0 1.40625 0.875 0.5 2 0.5ZM8 9.5C8 10.2188 7.59375 10.875 7 11.25C6.375 11.5938 5.59375 11.5938 5 11.25C4.375 10.875 4 10.2188 4 9.5C4 8.8125 4.375 8.15625 5 7.78125C5.59375 7.4375 6.375 7.4375 7 7.78125C7.59375 8.15625 8 8.8125 8 9.5Z" fill="#666666"/>
</svg>
