<svg width="20" height="16" viewBox="0 0 20 16" fill="none" xmlns="http://www.w3.org/2000/svg">
<path d="M14.5 14C14.5 14.2812 14.25 14.5 14 14.5H12.5V12H11V14.5H5V4H2C0.875 4 0 4.90625 0 6V14C0 15.125 0.875 16 2 16H14C15.0938 16 16 15.125 16 14V12H14.5V14ZM3.5 14.5H2C1.71875 14.5 1.5 14.2812 1.5 14V12.5H3.5V14.5ZM3.5 11H1.5V9H3.5V11ZM3.5 7.5H1.5V6C1.5 5.75 1.71875 5.5 2 5.5H3.5V7.5ZM18 0H8C6.875 0 6 0.90625 6 2V9C6 10.125 6.875 11 8 11H18C19.0938 11 20 10.125 20 9V2C20 0.90625 19.0938 0 18 0ZM18.5 9C18.5 9.28125 18.25 9.5 18 9.5L14.5625 4.5C14.4688 4.34375 14.3125 4.25 14.1562 4.25C13.9688 4.25 13.8125 4.34375 13.7188 4.5L11.7812 7.4375L11.0625 6.46875C10.9688 6.34375 10.8438 6.25 10.6562 6.25C10.4688 6.25 10.3438 6.34375 10.25 6.46875L8 9.5C7.71875 9.5 7.5 9.28125 7.5 9V2C7.5 1.75 7.71875 1.5 8 1.5H18C18.25 1.5 18.5 1.75 18.5 2V9ZM9.46875 2.5C8.90625 2.5 8.46875 2.96875 8.46875 3.5C8.46875 4.0625 8.90625 4.5 9.46875 4.5C10 4.5 10.4688 4.0625 10.4688 3.5C10.4688 2.96875 10.0312 2.5 9.46875 2.5Z" fill="#333333"/>
</svg>