<svg width="30" height="30" viewBox="0 0 30 30" fill="none" xmlns="http://www.w3.org/2000/svg">
<path d="M26.4748 14.7974C26.4748 10.6945 24.257 6.92438 20.7086 4.81752C17.1048 2.76611 12.7248 2.76611 9.17638 4.81752C5.57255 6.92438 3.41025 10.6945 3.41025 14.7974C3.41025 18.9556 5.57255 22.7258 9.17638 24.8326C12.7248 26.8841 17.1048 26.8841 20.7086 24.8326C24.257 22.7258 26.4748 18.9556 26.4748 14.7974ZM0.748957 14.7974C0.748957 9.752 3.41025 5.09474 7.84573 2.54433C12.2258 -0.00606824 17.6038 -0.00606824 22.0393 2.54433C26.4193 5.09474 29.1361 9.752 29.1361 14.7974C29.1361 19.8982 26.4193 24.5554 22.0393 27.1058C17.6038 29.6562 12.2258 29.6562 7.84573 27.1058C3.41025 24.5554 0.748957 19.8982 0.748957 14.7974ZM11.1723 8.80946C11.5604 8.53224 12.1149 8.53224 12.503 8.80946L20.4869 13.6885C20.875 13.9103 21.1522 14.3538 21.1522 14.8528C21.1522 15.2964 20.875 15.7399 20.4869 15.9617L12.503 20.8407C12.1149 21.1179 11.5604 21.1179 11.1723 20.8961C10.7288 20.6189 10.507 20.1754 10.507 19.7318V9.91833C10.507 9.47478 10.7288 9.03123 11.1723 8.80946Z" fill="#FFFBFC"/>
</svg>
