<svg width="17" height="17" viewBox="0 0 17 17" fill="none" xmlns="http://www.w3.org/2000/svg">
<path d="M15.5714 7.5H9.57141V1.5C9.57141 1.23478 9.46605 0.98043 9.27852 0.792893C9.09098 0.605357 8.83663 0.5 8.57141 0.5C8.30619 0.5 8.05184 0.605357 7.8643 0.792893C7.67677 0.98043 7.57141 1.23478 7.57141 1.5V7.5H1.57141C1.30619 7.5 1.05184 7.60536 0.864305 7.79289C0.676768 7.98043 0.571411 8.23478 0.571411 8.5C0.571411 8.76522 0.676768 9.01957 0.864305 9.20711C1.05184 9.39464 1.30619 9.5 1.57141 9.5H7.57141V15.5C7.57141 15.7652 7.67677 16.0196 7.8643 16.2071C8.05184 16.3946 8.30619 16.5 8.57141 16.5C8.83663 16.5 9.09098 16.3946 9.27852 16.2071C9.46605 16.0196 9.57141 15.7652 9.57141 15.5V9.5H15.5714C15.8366 9.5 16.091 9.39464 16.2785 9.20711C16.4661 9.01957 16.5714 8.76522 16.5714 8.5C16.5714 8.23478 16.4661 7.98043 16.2785 7.79289C16.091 7.60536 15.8366 7.5 15.5714 7.5Z" fill="#FFFBFC"/>
</svg>
