<svg width="16" height="17" viewBox="0 0 16 17" fill="none" xmlns="http://www.w3.org/2000/svg">
<path d="M14.75 0.71875L15 1.5L15.7812 1.75C15.9062 1.78125 16 1.875 16 2C16 2.125 15.9062 2.25 15.7812 2.28125L15 2.5L14.75 3.3125C14.7188 3.4375 14.625 3.5 14.5 3.5C14.375 3.5 14.25 3.4375 14.2188 3.3125L14 2.5L13.1875 2.28125C13.0625 2.25 13 2.125 13 2C13 1.875 13.0625 1.78125 13.1875 1.75L14 1.5L14.2188 0.71875C14.25 0.59375 14.3438 0.5 14.5 0.5C14.625 0.5 14.7188 0.59375 14.75 0.71875ZM1.75 2.71875L2 3.5L2.78125 3.75C2.90625 3.78125 3 3.875 3 4C3 4.125 2.90625 4.25 2.78125 4.28125L2 4.5L1.75 5.3125C1.71875 5.4375 1.625 5.5 1.5 5.5C1.375 5.5 1.25 5.4375 1.21875 5.3125L1 4.5L0.1875 4.28125C0.0625 4.25 0 4.15625 0 4C0 3.875 0.0625 3.78125 0.1875 3.75L1 3.5L1.21875 2.71875C1.25 2.59375 1.34375 2.5 1.5 2.5C1.625 2.5 1.71875 2.59375 1.75 2.71875ZM3 15.75C3 15.3438 3.3125 15 3.75 15H12.25C12.6562 15 13 15.3438 13 15.75C13 16.1875 12.6562 16.5 12.25 16.5H3.75C3.3125 16.5 3 16.1875 3 15.75ZM6.5 2C6.5 1.46875 6.78125 1 7.25 0.71875C7.6875 0.4375 8.28125 0.4375 8.75 0.71875C9.1875 1 9.5 1.46875 9.5 2C9.5 2.5625 9.1875 3.03125 8.75 3.3125C8.28125 3.59375 7.6875 3.59375 7.25 3.3125C6.78125 3.03125 6.5 2.5625 6.5 2ZM7.5 10.5V14H6V7.03125L4.34375 9.21875C4.09375 9.5625 3.625 9.625 3.28125 9.375C2.96875 9.125 2.875 8.625 3.125 8.3125L5.1875 5.59375C5.71875 4.90625 6.53125 4.5 7.375 4.5H8.59375C9.4375 4.5 10.25 4.90625 10.7812 5.59375L12.8438 8.3125C13.0938 8.65625 13.0312 9.125 12.6875 9.375C12.375 9.625 11.875 9.53125 11.625 9.21875L10 7.03125V14H8.5V10.5H7.5ZM7.5 9H8.5V6H7.5V9Z" fill="#666666"/>
</svg>
