<svg width="17" height="16" viewBox="0 0 17 16" fill="none" xmlns="http://www.w3.org/2000/svg">
<path d="M7.62074 1.51599C7.87805 0.724062 8.99841 0.724062 9.25573 1.51599L10.4904 5.31589C10.6055 5.67005 10.9355 5.90983 11.3079 5.90983H15.3033C16.136 5.90983 16.4822 6.97536 15.8086 7.4648L12.5762 9.81326C12.2749 10.0321 12.1489 10.4201 12.2639 10.7743L13.4986 14.5742C13.7559 15.3661 12.8495 16.0246 12.1759 15.5352L8.94347 13.1867C8.64221 12.9679 8.23426 12.9679 7.93299 13.1867L4.70061 15.5352C4.02695 16.0246 3.12056 15.3661 3.37787 14.5742L4.61254 10.7743C4.72761 10.4201 4.60155 10.0321 4.30028 9.81326L1.06789 7.4648C0.394242 6.97536 0.740454 5.90983 1.57313 5.90983H5.56858C5.94097 5.90983 6.271 5.67005 6.38608 5.31589L7.62074 1.51599Z" fill="#FFD54F"/>
</svg>