<svg width="18" height="13" viewBox="0 0 18 13" fill="none" xmlns="http://www.w3.org/2000/svg">
<path d="M2 2C1.71875 2 1.5 2.25 1.5 2.5V10.5C1.5 10.7812 1.71875 11 2 11H10C10.25 11 10.5 10.7812 10.5 10.5V2.5C10.5 2.25 10.25 2 10 2H2ZM0 2.5C0 1.40625 0.875 0.5 2 0.5H10C11.0938 0.5 12 1.40625 12 2.5V3.53125V9.46875V10.5C12 11.625 11.0938 12.5 10 12.5H2C0.875 12.5 0 11.625 0 10.5V2.5ZM16.5 9.875V3.15625L13 4.71875V3.09375L16.25 1.625C16.4062 1.5625 16.5625 1.5 16.75 1.5C17.4375 1.5 18 2.0625 18 2.75V10.2812C18 10.9688 17.4375 11.5 16.75 11.5C16.5625 11.5 16.4062 11.4688 16.25 11.4062L13 9.9375V8.28125L16.5 9.875Z" fill="#666666"/>
</svg>
