<svg width="26" height="18" viewBox="0 0 26 18" fill="none" xmlns="http://www.w3.org/2000/svg">
<path d="M22.7271 0.416626H2.44706C1.15518 0.416626 0.107056 1.38413 0.107056 2.57663V15.5366C0.107056 16.7291 1.15518 17.6966 2.44706 17.6966H22.7271C24.0189 17.6966 25.0671 16.7291 25.0671 15.5366V2.57663C25.0671 1.38413 24.0189 0.416626 22.7271 0.416626ZM2.44706 1.85663H22.7271C23.1561 1.85663 23.5071 2.18063 23.5071 2.57663V4.43963C22.4394 5.27213 20.9136 6.41963 16.1653 9.89813C15.3414 10.5011 13.7181 11.9546 12.5871 11.9366C11.4561 11.9546 9.8278 10.5011 9.00881 9.89813C4.26056 6.41963 2.73468 5.27213 1.66706 4.43963V2.57663C1.66706 2.18063 2.01806 1.85663 2.44706 1.85663ZM22.7271 16.2566H2.44706C2.01806 16.2566 1.66706 15.9326 1.66706 15.5366V6.31163C2.77856 7.15313 4.53356 8.45363 8.03868 11.0231C9.03805 11.7611 10.8028 13.3856 12.5871 13.3766C14.3616 13.3901 16.1117 11.7791 17.1354 11.0231C20.6406 8.45363 22.3956 7.15313 23.5071 6.31163V15.5366C23.5071 15.9326 23.1561 16.2566 22.7271 16.2566Z" fill="#E8EAF6"/>
</svg>
